<svg width="52" height="52" viewBox="0 0 52 52" fill="none" xmlns="http://www.w3.org/2000/svg">
<rect x="1.5" y="1.5" width="45" height="37" rx="4.5" stroke="#96A0AC" stroke-width="3"/>
<rect x="6" y="6" width="3" height="3" fill="#96A0AC"/>
<rect x="12" y="6" width="3" height="3" fill="#96A0AC"/>
<rect x="3" y="12" width="42" height="3" fill="#96A0AC"/>
<mask id="path-5-inside-1_222_3793" fill="white">
<path fill-rule="evenodd" clip-rule="evenodd" d="M24 20C20.6863 20 18 22.6863 18 26V30V39V42C18 45.3137 20.6863 48 24 48H42C45.3137 48 48 45.3137 48 42V30C48 26.6863 45.3137 24 42 24H36.4444L32 20H24Z"/>
</mask>
<path fill-rule="evenodd" clip-rule="evenodd" d="M24 20C20.6863 20 18 22.6863 18 26V30V39V42C18 45.3137 20.6863 48 24 48H42C45.3137 48 48 45.3137 48 42V30C48 26.6863 45.3137 24 42 24H36.4444L32 20H24Z" fill="#0F1317"/>
<path d="M36.4444 24L34.4375 26.2299L35.2932 27H36.4444V24ZM32 20L34.0069 17.7701L33.1512 17H32V20ZM21 26C21 24.3431 22.3431 23 24 23V17C19.0294 17 15 21.0294 15 26H21ZM21 30V26H15V30H21ZM21 39V30H15V39H21ZM21 42V39H15V42H21ZM24 45C22.3431 45 21 43.6569 21 42H15C15 46.9706 19.0294 51 24 51V45ZM42 45H24V51H42V45ZM45 42C45 43.6569 43.6569 45 42 45V51C46.9706 51 51 46.9706 51 42H45ZM45 30V42H51V30H45ZM42 27C43.6569 27 45 28.3431 45 30H51C51 25.0294 46.9706 21 42 21V27ZM36.4444 27H42V21H36.4444V27ZM29.9931 22.2299L34.4375 26.2299L38.4513 21.7701L34.0069 17.7701L29.9931 22.2299ZM24 23H32V17H24V23Z" fill="#93C94F" mask="url(#path-5-inside-1_222_3793)"/>
<mask id="path-7-outside-2_222_3793" maskUnits="userSpaceOnUse" x="14" y="16" width="38" height="36" fill="black">
<rect fill="white" x="14" y="16" width="38" height="36"/>
<path fill-rule="evenodd" clip-rule="evenodd" d="M24 20C20.6863 20 18 22.6863 18 26V30V39V42C18 45.3137 20.6863 48 24 48H42C45.3137 48 48 45.3137 48 42V30C48 26.6863 45.3137 24 42 24H36.4444L32 20H24Z"/>
</mask>
<path d="M36.4444 24L33.7686 26.9732L34.9095 28H36.4444V24ZM32 20L34.6759 17.0268L33.5349 16H32V20ZM22 26C22 24.8954 22.8954 24 24 24V16C18.4772 16 14 20.4772 14 26H22ZM22 30V26H14V30H22ZM22 39V30H14V39H22ZM22 42V39H14V42H22ZM24 44C22.8954 44 22 43.1046 22 42H14C14 47.5228 18.4772 52 24 52V44ZM42 44H24V52H42V44ZM44 42C44 43.1046 43.1046 44 42 44V52C47.5228 52 52 47.5228 52 42H44ZM44 30V42H52V30H44ZM42 28C43.1046 28 44 28.8954 44 30H52C52 24.4772 47.5228 20 42 20V28ZM36.4444 28H42V20H36.4444V28ZM29.3241 22.9732L33.7686 26.9732L39.1203 21.0268L34.6759 17.0268L29.3241 22.9732ZM24 24H32V16H24V24Z" fill="#0F1317" mask="url(#path-7-outside-2_222_3793)"/>
<mask id="path-9-outside-3_222_3793" maskUnits="userSpaceOnUse" x="3" y="21" width="26" height="29" fill="black">
<rect fill="white" x="3" y="21" width="26" height="29"/>
<path fill-rule="evenodd" clip-rule="evenodd" d="M6 24H9V35C9 36.1046 9.89543 37 11 37H19.1844L16 33.8157L17.8157 32L24.3511 38.5354L17.8157 45.0708L16 43.2551L19.2552 40H11C8.23858 40 6 37.7614 6 35V24Z"/>
</mask>
<path fill-rule="evenodd" clip-rule="evenodd" d="M6 24H9V35C9 36.1046 9.89543 37 11 37H19.1844L16 33.8157L17.8157 32L24.3511 38.5354L17.8157 45.0708L16 43.2551L19.2552 40H11C8.23858 40 6 37.7614 6 35V24Z" fill="#FFB61A"/>
<path d="M9 24H12V21H9V24ZM6 24V21H3V24H6ZM19.1844 37V40H26.427L21.3057 34.8787L19.1844 37ZM16 33.8157L13.8787 31.6943L11.7574 33.8157L13.8787 35.937L16 33.8157ZM17.8157 32L19.937 29.8787L17.8157 27.7573L15.6944 29.8787L17.8157 32ZM24.3511 38.5354L26.4724 40.6567L28.5938 38.5354L26.4724 36.4141L24.3511 38.5354ZM17.8157 45.0708L15.6944 47.1921L17.8157 49.3135L19.937 47.1921L17.8157 45.0708ZM16 43.2551L13.8787 41.1338L11.7574 43.2551L13.8787 45.3765L16 43.2551ZM19.2552 40L21.3765 42.1213L26.4978 37H19.2552V40ZM9 21H6V27H9V21ZM12 35V24H6V35H12ZM11 34C11.5523 34 12 34.4477 12 35H6C6 37.7614 8.23858 40 11 40V34ZM19.1844 34H11V40H19.1844V34ZM13.8787 35.937L17.0631 39.1213L21.3057 34.8787L18.1213 31.6943L13.8787 35.937ZM15.6944 29.8787L13.8787 31.6943L18.1213 35.937L19.937 34.1213L15.6944 29.8787ZM26.4724 36.4141L19.937 29.8787L15.6944 34.1213L22.2298 40.6567L26.4724 36.4141ZM19.937 47.1921L26.4724 40.6567L22.2298 36.4141L15.6944 42.9495L19.937 47.1921ZM13.8787 45.3765L15.6944 47.1921L19.937 42.9495L18.1213 41.1338L13.8787 45.3765ZM17.1339 37.8787L13.8787 41.1338L18.1213 45.3765L21.3765 42.1213L17.1339 37.8787ZM11 43H19.2552V37H11V43ZM3 35C3 39.4183 6.58172 43 11 43V37C9.89543 37 9 36.1046 9 35H3ZM3 24V35H9V24H3Z" fill="#0F1317" mask="url(#path-9-outside-3_222_3793)"/>
</svg>
