<svg xmlns="http://www.w3.org/2000/svg" version="1.1" xmlns:xlink="http://www.w3.org/1999/xlink" xmlns:svgjs="http://svgjs.com/svgjs" width="1024px" height="1024px"><svg version="1.1" xmlns="http://www.w3.org/2000/svg" xmlns:xlink="http://www.w3.org/1999/xlink" x="0px" y="0px" width="1024px" height="1024px" viewBox="0 0 1024 1024" style="enable-background:new 0 0 1024 1024;" xml:space="preserve">
<style type="text/css">
	.st0{display:none;}
	.st1{display:inline;fill-rule:evenodd;clip-rule:evenodd;fill:#FFFFFF;}
	.st2{display:inline;fill-rule:evenodd;clip-rule:evenodd;}
	.st3{fill-rule:evenodd;clip-rule:evenodd;fill:url(#SVGID_1_);}
	.st4{display:inline;fill-rule:evenodd;clip-rule:evenodd;fill:url(#SVGID_2_);}
	
		.st5{display:inline;opacity:0.1216;fill-rule:evenodd;clip-rule:evenodd;fill:none;stroke:#EB7209;stroke-width:6.6518;stroke-miterlimit:10;}
	.st6{fill-rule:evenodd;clip-rule:evenodd;fill:url(#SVGID_3_);}
	.st7{fill-rule:evenodd;clip-rule:evenodd;fill:url(#SVGID_4_);}
	.st8{fill-rule:evenodd;clip-rule:evenodd;fill:url(#SVGID_5_);}
	.st9{display:inline;fill-rule:evenodd;clip-rule:evenodd;fill:url(#SVGID_6_);}
	.st10{display:inline;}
	.st11{fill:#0A0600;}
	.st12{fill:#FFB300;}
	.st13{fill-rule:evenodd;clip-rule:evenodd;fill:#FFFFFF;}
	.st14{fill-rule:evenodd;clip-rule:evenodd;}
	.st15{fill:none;stroke:#000000;stroke-miterlimit:10;}
</style>
<g id="SvgjsG1012" class="st0">
	<rect class="st1" width="1024" height="1024"></rect>
	<rect class="st2" width="1024" height="1024"></rect>
</g>
<g id="SvgjsG1011" class="st0">
	
		<radialGradient id="SvgjsRadialGradient1010" cx="498.2963" cy="533.1287" r="481.5471" gradientTransform="matrix(1 0 0 1.5365 0 -279.3067)" gradientUnits="userSpaceOnUse">
		<stop offset="0" style="stop-color:#FFFFFF"></stop>
		<stop offset="0.3144" style="stop-color:#FFFBEF"></stop>
		<stop offset="0.507" style="stop-color:#FFF8E3"></stop>
		<stop offset="0.526" style="stop-color:#FFF5D8"></stop>
		<stop offset="0.622" style="stop-color:#FDE8A5"></stop>
		<stop offset="0.7058" style="stop-color:#FCDF7F"></stop>
		<stop offset="0.7731" style="stop-color:#FBD968"></stop>
		<stop offset="0.8155" style="stop-color:#FBD760"></stop>
		<stop offset="1" style="stop-color:#D48911"></stop>
	</radialGradient>
	<rect class="st3" width="1024" height="1024"></rect>
	
		<radialGradient id="SvgjsRadialGradient1009" cx="498.2963" cy="533.1287" r="481.5471" gradientTransform="matrix(1 0 0 1.5365 0 -279.3067)" gradientUnits="userSpaceOnUse">
		<stop offset="0" style="stop-color:#FFFFFF"></stop>
		<stop offset="0.2945" style="stop-color:#FFFFFD"></stop>
		<stop offset="0.4004" style="stop-color:#FFFDF6"></stop>
		<stop offset="0.4411" style="stop-color:#FFFCF1"></stop>
		<stop offset="0.4851" style="stop-color:#FFFBEF"></stop>
		<stop offset="0.5009" style="stop-color:#FFFAE8"></stop>
		<stop offset="0.507" style="stop-color:#FFF8E3"></stop>
		<stop offset="0.6384" style="stop-color:#FFF8E1"></stop>
		<stop offset="0.6858" style="stop-color:#FFF6DA"></stop>
		<stop offset="0.7195" style="stop-color:#FEF3CF"></stop>
		<stop offset="0.7468" style="stop-color:#FEEFBE"></stop>
		<stop offset="0.7702" style="stop-color:#FDE9A8"></stop>
		<stop offset="0.7909" style="stop-color:#FCE28C"></stop>
		<stop offset="0.8091" style="stop-color:#FBDA6D"></stop>
		<stop offset="0.8155" style="stop-color:#FBD760"></stop>
		<stop offset="0.9025" style="stop-color:#FAD55E"></stop>
		<stop offset="0.9339" style="stop-color:#F7CE57"></stop>
		<stop offset="0.9562" style="stop-color:#F1C34C"></stop>
		<stop offset="0.9742" style="stop-color:#E9B23B"></stop>
		<stop offset="0.9895" style="stop-color:#DE9D25"></stop>
		<stop offset="1" style="stop-color:#D48911"></stop>
	</radialGradient>
	<rect class="st4" width="1024" height="1024"></rect>
	
		<ellipse transform="matrix(0.4453 -0.8954 0.8954 0.4453 -195.0128 755.2162)" class="st5" cx="512" cy="535" rx="433.86" ry="300"></ellipse>
	<g>
		<path class="st2" d="M451.02,615.49c6.18-55.41,18.41-109.56,24.42-133.93c-46.01,78.3-146.8,249-175.29,296.7
			c-2.3,3.85-4.52,7.59-6.68,11.22c-20.52,34.54-35.02,58.96-51.03,66.5c4.46,8.71,9.56,14.34,14.86,17.57
			c29.98,18.26,47.27-10.86,78.53-63.5l0.02-0.03c2.15-3.62,4.37-7.35,6.66-11.19C360.51,768.7,407.36,689.48,451.02,615.49z
			 M447.1,676.04c-34.56,58.52-66.96,113.24-81.24,137.15c-2.21,3.7-4.39,7.38-6.55,11.03c-14.18,23.93-27.49,46.39-40.89,60.64
			c-8.18,8.7-19.06,17.42-33.35,20.47c-15.2,3.25-29.37-0.89-41.62-8.34c-15.35-9.35-22.53-23.45-31.23-39.58
			c-8.7-16.13-36.98-82.33-21.03-219.28C208.22,492,235.4,403.55,243.4,378.1c0.37-1.17,0.74-2.37,1.13-3.6
			c7.97-25.57,23.6-51.56,45.75-64.18c8.74-4.98,14.33-6.62,19.51-8.59c6.79-2.58,15.85-4.18,20.71-4.73
			c16.67-1.86,35.22-3.25,51.44,10.95c14.93,13.07,18.02,32.74,19.17,46.59c1.08,13.11-3.54,24.23-8.05,31.96
			c-4.61,7.9-10.54,14.75-15.69,20.08c-4.75,4.93-9.66,9.4-13.27,12.69l-0.99,0.9c-1.58,1.44-2.74,2.51-3.62,3.36
			c-0.45,1.15-1.28,3.35-2.49,7.01c-2.18,6.62-5.01,16.17-8.43,28.99c-6.83,25.59-15.82,63.38-26.56,115.11
			c-4.46,21.46-8.22,42.31-11.29,61.98c9.79-16.44,20.85-35.03,33.35-56.06C460.3,385.14,478.42,358.45,514.47,356.5
			c2.86,0,6.47-0.54,11.88,0c5.41,0.54,11.45,2.05,11.45,2.05s6.47,1.18,18.67,5.26c18.18,6.08,26.85,20.32,31.82,34.52
			c4.43,12.68,5.4,27.76,5.27,42.76c-0.21,23.73-3.48,55.68-7.41,94.18c-1.08,10.57-2.21,21.64-3.34,33.16
			c-3.06,31.14-5.39,62.59-6.86,91.71c17.63-41.26,39.43-94.57,66.1-161.53c50.07-125.69,73.48-214.96,88.01-270.39
			c15.63-59.64,22.51-65.15,37.47-73.21c7.24-3.9,11.82-4.71,13.57-4.94c4.88-0.64,6.47-1.28,16.33-0.64
			c17.39,1.18,25.75,9.41,31.18,14.27c8.66,7.75,13.34,17.78,16.03,26.51c2.76,8.94,4.1,18.71,4.67,28.4
			c1.13,19.37-0.69,42.15-3.94,65.13c-6.54,46.19-19.56,97.86-31.31,134.66c-22.95,71.81-65.44,192.59-107.27,287.25
			c-20.97,47.47-41.79,88.62-58.08,118.86c-15.79,29.32-28.29,50.19-32.48,55.72c-13.09,17.29-31.85,24.3-47.82,26.27
			c-15.69,1.93-31.74-0.55-43.92-5.84c-15.78-6.84-24.42-15.8-32.27-27.12c-7.85-11.32-14.85-23-18.24-30.09
			c-6.43-13.44-10.92-26.67-14.42-39.95C455.38,787.75,445.67,748.91,447.1,676.04z M517.66,859.08
			c5.14,7.57,11.05,13.68,17.3,16.39c15.02,6.51,44.67,7.61,59.57-12.07c5.4-7.13,46.08-75.72,87.37-169.17
			C723.2,600.78,765.36,481,788.14,409.7c22.79-71.3,50.46-200.58,22.55-225.56c-14.25-12.75-22.55-7.21-26.84,34.47
			c-5.49,53.26-23.24,124.13-38.06,170.52c-22.79,71.3-64.94,191.08-106.24,284.53c-41.3,93.45-81.98,162.05-87.37,169.18
			C543.66,854.08,530.32,858.54,517.66,859.08z M546.92,725.18c-0.06-43.88,3.18-102.49,8.81-159.78
			c1.18-12.06,2.35-23.47,3.45-34.24c8.9-87.17,13.51-132.35-10.57-138.41c-8.71-2.19-16.31-1.91-25.8,4.76
			c3.07,21.42-0.2,56.19-5.15,104.86c0.05-0.09,0.1-0.17,0.15-0.26c-0.07,0.29-0.14,0.58-0.22,0.88c-0.25,2.49-0.51,5.03-0.77,7.59
			c-1.1,10.77-2.26,22.18-3.45,34.24c-10.77,109.65-12.78,224.12,0.28,230.92C518.55,778.3,528.94,763.02,546.92,725.18z
			 M275.79,695.19c3.41-35.8,9.9-79.81,19.6-126.48c21.63-104.13,36.4-153.23,41.22-160.74c1.3-2.03,4.76-5.18,9.08-9.12
			c11.66-10.63,29.58-26.97,28.31-42.36c-2.22-26.84-10.84-37.21-38.78-31.13c-1.63,0.35-3.2,0.81-4.72,1.36
			c0.49,2.81,0.87,5.88,1.14,9.2c1.27,15.39-16.65,31.73-28.31,42.36c-4.32,3.94-7.78,7.09-9.08,9.12
			c-4.82,7.51-19.59,56.61-41.22,160.73C231.91,649.78,225.99,738.77,234,757.96c0.03,0.07,0.06,0.14,0.08,0.21
			C235.34,761.24,235.7,762.15,275.79,695.19z M358.19,424.85c0,0,0.02-0.03,0.07-0.08L358.19,424.85z"></path>
	</g>
</g>
<g id="SvgjsG1008" class="st0">
	
		<radialGradient id="SvgjsRadialGradient1007" cx="497.8885" cy="526.562" r="515.1108" gradientTransform="matrix(1 0 0 1.5365 0 -279.3067)" gradientUnits="userSpaceOnUse">
		<stop offset="0" style="stop-color:#A8A8A8"></stop>
		<stop offset="0.3286" style="stop-color:#A6A6A6"></stop>
		<stop offset="0.447" style="stop-color:#A09F9F"></stop>
		<stop offset="0.5314" style="stop-color:#949494"></stop>
		<stop offset="0.5991" style="stop-color:#848383"></stop>
		<stop offset="0.655" style="stop-color:#706F6E"></stop>
		<stop offset="0.7516" style="stop-color:#6E6D6C"></stop>
		<stop offset="0.7864" style="stop-color:#676665"></stop>
		<stop offset="0.8112" style="stop-color:#5C5B5A"></stop>
		<stop offset="0.8311" style="stop-color:#4B4A49"></stop>
		<stop offset="0.8476" style="stop-color:#373634"></stop>
		<stop offset="0.9284" style="stop-color:#353432"></stop>
		<stop offset="0.9575" style="stop-color:#2F2E2B"></stop>
		<stop offset="0.9783" style="stop-color:#232220"></stop>
		<stop offset="0.9949" style="stop-color:#13120F"></stop>
		<stop offset="1" style="stop-color:#0D0B08"></stop>
	</radialGradient>
	<rect class="st6" width="1024" height="1024"></rect>
	
		<radialGradient id="SvgjsRadialGradient1006" cx="497.8885" cy="526.562" r="571.3029" gradientTransform="matrix(1 0 0 1.5365 0 -279.3067)" gradientUnits="userSpaceOnUse">
		<stop offset="0" style="stop-color:#E8D2A0"></stop>
		<stop offset="0.2854" style="stop-color:#E6D09E"></stop>
		<stop offset="0.3882" style="stop-color:#DFC997"></stop>
		<stop offset="0.4615" style="stop-color:#D4BE8C"></stop>
		<stop offset="0.5208" style="stop-color:#C3AD7B"></stop>
		<stop offset="0.5715" style="stop-color:#AE9865"></stop>
		<stop offset="0.6157" style="stop-color:#937D4A"></stop>
		<stop offset="0.655" style="stop-color:#755F2B"></stop>
		<stop offset="0.7483" style="stop-color:#735D2A"></stop>
		<stop offset="0.7819" style="stop-color:#6C5827"></stop>
		<stop offset="0.8059" style="stop-color:#614D22"></stop>
		<stop offset="0.8252" style="stop-color:#503F1A"></stop>
		<stop offset="0.8416" style="stop-color:#3A2D10"></stop>
		<stop offset="0.8476" style="stop-color:#30240B"></stop>
		<stop offset="0.9322" style="stop-color:#2E230B"></stop>
		<stop offset="0.9627" style="stop-color:#271E0A"></stop>
		<stop offset="0.9844" style="stop-color:#1C1509"></stop>
		<stop offset="1" style="stop-color:#0D0B08"></stop>
	</radialGradient>
	<rect class="st7" width="1024" height="1024"></rect>
	
		<radialGradient id="SvgjsRadialGradient1005" cx="497.8885" cy="526.562" r="571.3029" gradientTransform="matrix(1 0 0 1.5365 0 -279.3067)" gradientUnits="userSpaceOnUse">
		<stop offset="0" style="stop-color:#A0A1E8"></stop>
		<stop offset="0.2854" style="stop-color:#9E9FE6"></stop>
		<stop offset="0.3882" style="stop-color:#9799DF"></stop>
		<stop offset="0.4615" style="stop-color:#8C8DD4"></stop>
		<stop offset="0.5208" style="stop-color:#7B7DC3"></stop>
		<stop offset="0.5715" style="stop-color:#6568AE"></stop>
		<stop offset="0.6157" style="stop-color:#4A4E93"></stop>
		<stop offset="0.655" style="stop-color:#2B3075"></stop>
		<stop offset="0.7483" style="stop-color:#2A2F73"></stop>
		<stop offset="0.7819" style="stop-color:#272C6C"></stop>
		<stop offset="0.8059" style="stop-color:#222661"></stop>
		<stop offset="0.8252" style="stop-color:#1A1E50"></stop>
		<stop offset="0.8416" style="stop-color:#10133A"></stop>
		<stop offset="0.8476" style="stop-color:#0B0E30"></stop>
		<stop offset="0.93" style="stop-color:#0B0E2E"></stop>
		<stop offset="0.9597" style="stop-color:#0B0D27"></stop>
		<stop offset="0.9807" style="stop-color:#0C0C1C"></stop>
		<stop offset="0.9977" style="stop-color:#0D0B0B"></stop>
		<stop offset="1" style="stop-color:#0D0B08"></stop>
	</radialGradient>
	<rect class="st8" width="1024" height="1024"></rect>
	
		<radialGradient id="SvgjsRadialGradient1004" cx="497.8885" cy="526.562" r="571.3029" gradientTransform="matrix(1 0 0 1.5365 0 -279.3067)" gradientUnits="userSpaceOnUse">
		<stop offset="0" style="stop-color:#9FA0C4"></stop>
		<stop offset="0.2895" style="stop-color:#9D9EC2"></stop>
		<stop offset="0.3938" style="stop-color:#9697BB"></stop>
		<stop offset="0.4681" style="stop-color:#8B8CB0"></stop>
		<stop offset="0.5282" style="stop-color:#7A7B9F"></stop>
		<stop offset="0.5797" style="stop-color:#64668A"></stop>
		<stop offset="0.6244" style="stop-color:#494C70"></stop>
		<stop offset="0.655" style="stop-color:#323559"></stop>
		<stop offset="0.7586" style="stop-color:#303357"></stop>
		<stop offset="0.7959" style="stop-color:#2A2D50"></stop>
		<stop offset="0.8224" style="stop-color:#1F2245"></stop>
		<stop offset="0.8438" style="stop-color:#0F1234"></stop>
		<stop offset="0.8476" style="stop-color:#0B0E30"></stop>
		<stop offset="0.93" style="stop-color:#0B0E2E"></stop>
		<stop offset="0.9597" style="stop-color:#0B0D27"></stop>
		<stop offset="0.9807" style="stop-color:#0C0C1C"></stop>
		<stop offset="0.9977" style="stop-color:#0D0B0B"></stop>
		<stop offset="1" style="stop-color:#0D0B08"></stop>
	</radialGradient>
	<rect class="st9" width="1024" height="1024"></rect>
	<g class="st10">
		<g>
			<path class="st11" d="M512,32c64.81,0,127.67,12.69,186.83,37.71c57.15,24.17,108.49,58.79,152.58,102.88
				s78.71,95.43,102.88,152.58C979.31,384.33,992,447.19,992,512s-12.69,127.67-37.71,186.83
				c-24.17,57.15-58.79,108.49-102.88,152.58s-95.43,78.71-152.58,102.88C639.67,979.31,576.81,992,512,992
				s-127.67-12.69-186.83-37.71c-57.15-24.17-108.49-58.79-152.58-102.88S93.88,755.98,69.71,698.83C44.69,639.67,32,576.81,32,512
				s12.69-127.67,37.71-186.83c24.17-57.15,58.79-108.49,102.88-152.58s95.43-78.71,152.58-102.88C384.33,44.69,447.19,32,512,32
				 M512,0C229.23,0,0,229.23,0,512s229.23,512,512,512s512-229.23,512-512S794.77,0,512,0L512,0z"></path>
		</g>
	</g>
	<g class="st10">
		<path class="st12" d="M512,16c66.97,0,131.92,13.11,193.06,38.97c59.06,24.98,112.11,60.75,157.66,106.3
			c45.56,45.56,81.32,98.6,106.3,157.66C994.89,380.08,1008,445.03,1008,512s-13.11,131.92-38.97,193.06
			c-24.98,59.06-60.75,112.11-106.3,157.66c-45.56,45.56-98.6,81.32-157.66,106.3C643.92,994.89,578.97,1008,512,1008
			s-131.92-13.11-193.06-38.97c-59.06-24.98-112.11-60.75-157.66-106.3c-45.56-45.56-81.32-98.6-106.3-157.66
			C29.11,643.92,16,578.97,16,512s13.11-131.92,38.97-193.06c24.98-59.06,60.75-112.11,106.3-157.66
			c45.56-45.56,98.6-81.32,157.66-106.3C380.08,29.11,445.03,16,512,16 M512,0C229.23,0,0,229.23,0,512s229.23,512,512,512
			s512-229.23,512-512S794.77,0,512,0L512,0z"></path>
	</g>
</g>
<g id="SvgjsG1003" class="st0">
	<g id="SvgjsG1002" class="st10">
		<path class="st13" d="M276.03,369.74c10.49-18.94,21.63-38.61,39.67-50.58c18.03-11.97,45.11-13.32,59.38,2.96
			c11.07,12.63,11.22,31.9,5.53,47.71c-5.68,15.81-16.22,29.3-25.21,43.49c-41.76,65.93-50.09,146.92-57.33,224.63
			c-1.2,12.87-1.05,28.58,10.02,35.24c7.94,4.78,18.62,2.32,25.91-3.4c7.29-5.72,11.95-14.07,16.42-22.19
			c39.64-72,79.27-144,118.91-216c7.49-13.6,15.15-27.43,26.34-38.2s26.66-18.2,42.04-16.06c20.3,2.82,35.33,21.69,40.33,41.57
			c5,19.88,2.08,40.77-0.57,61.09c-8.35,64.11-13.7,128.61-16.04,193.22c-0.37,10.16-0.14,21.66,7.28,28.6
			c8.61,8.06,23.3,5.55,32.16-2.24c8.85-7.79,13.3-19.3,17.43-30.34c9.52-25.45,19.05-50.9,28.57-76.35
			c11.76-31.41,23.51-62.82,35.27-94.24c29.76-79.52,59.79-160.18,67.78-244.71c2.11-22.28,3.07-45.95,15.52-64.55
			c12.46-18.6,41.59-28.03,57.42-12.2c9.28,9.28,10.88,23.63,10.96,36.76c0.21,34.49-6.38,68.65-13.85,102.32
			c-40.82,184.05-108.77,362.06-200.98,526.5c-13.2,23.54-30.5,49.33-57.26,52.88c-18.47,2.45-37-7.12-49.42-21.01
			c-12.41-13.89-19.6-31.62-25.32-49.36c-24.78-76.82-25.72-161.16-2.66-238.51C437,667.13,389.68,747.45,342.36,827.77
			c-10.89,18.49-22.36,37.6-40.14,49.63c-17.78,12.02-43.81,14.73-59.7,0.31c-10.88-9.87-14.72-25.15-17.63-39.55
			C193.23,681.46,198.28,510.15,276.03,369.74z"></path>
	</g>
	<path class="st2" d="M451.02,615.49c6.18-55.41,18.41-109.56,24.42-133.93c-46.01,78.3-146.8,249-175.29,296.7
		c-2.3,3.85-4.52,7.59-6.68,11.22c-20.52,34.54-35.02,58.96-51.03,66.5c4.46,8.71,9.56,14.34,14.86,17.57
		c29.98,18.26,47.27-10.86,78.53-63.5l0.02-0.03c2.15-3.62,4.37-7.35,6.66-11.19C360.51,768.7,407.36,689.48,451.02,615.49z
		 M447.1,676.04c-34.56,58.52-66.96,113.24-81.24,137.15c-2.21,3.7-4.39,7.38-6.55,11.03c-14.18,23.93-27.49,46.39-40.89,60.64
		c-8.18,8.7-19.06,17.42-33.35,20.47c-15.2,3.25-29.37-0.89-41.62-8.34c-15.35-9.35-22.53-23.45-31.23-39.58
		c-8.7-16.13-36.98-82.33-21.03-219.28C208.22,492,235.4,403.55,243.4,378.1c0.37-1.17,0.74-2.37,1.13-3.6
		c7.97-25.57,23.6-51.56,45.75-64.18c8.74-4.98,14.33-6.62,19.51-8.59c6.79-2.58,15.85-4.18,20.71-4.73
		c16.67-1.86,35.22-3.25,51.44,10.95c14.93,13.07,18.02,32.74,19.17,46.59c1.08,13.11-3.54,24.23-8.05,31.96
		c-4.61,7.9-10.54,14.75-15.69,20.08c-4.75,4.93-9.66,9.4-13.27,12.69l-0.99,0.9c-1.58,1.44-2.74,2.51-3.62,3.36
		c-0.45,1.15-1.28,3.35-2.49,7.01c-2.18,6.62-5.01,16.17-8.43,28.99c-6.83,25.59-15.82,63.38-26.56,115.11
		c-4.46,21.46-8.22,42.31-11.29,61.98c9.79-16.44,20.85-35.03,33.35-56.06C460.3,385.14,478.42,358.45,514.47,356.5
		c2.86,0,6.47-0.54,11.88,0c5.41,0.54,11.45,2.05,11.45,2.05s6.47,1.18,18.67,5.26c18.18,6.08,26.85,20.32,31.82,34.52
		c4.43,12.68,5.4,27.76,5.27,42.76c-0.21,23.73-3.48,55.68-7.41,94.18c-1.08,10.57-2.21,21.64-3.34,33.16
		c-3.06,31.14-5.39,62.59-6.86,91.71c17.63-41.26,39.43-94.57,66.1-161.53c50.07-125.69,73.48-214.96,88.01-270.39
		c15.63-59.64,22.51-65.15,37.47-73.21c7.24-3.9,11.82-4.71,13.57-4.94c4.88-0.64,6.47-1.28,16.33-0.64
		c17.39,1.18,25.75,9.41,31.18,14.27c8.66,7.75,13.34,17.78,16.03,26.51c2.76,8.94,4.1,18.71,4.67,28.4
		c1.13,19.37-0.69,42.15-3.94,65.13c-6.54,46.19-19.56,97.86-31.31,134.66c-22.95,71.81-65.44,192.59-107.27,287.25
		c-20.97,47.47-41.79,88.62-58.08,118.86c-15.79,29.32-28.29,50.19-32.48,55.72c-13.09,17.29-31.85,24.3-47.82,26.27
		c-15.69,1.93-31.74-0.55-43.92-5.84c-15.78-6.84-24.42-15.8-32.27-27.12c-7.85-11.32-14.85-23-18.24-30.09
		c-6.43-13.44-10.92-26.67-14.42-39.95C455.38,787.75,445.67,748.91,447.1,676.04z M517.66,859.08c5.14,7.57,11.05,13.68,17.3,16.39
		c15.02,6.51,44.67,7.61,59.57-12.07c5.4-7.13,46.08-75.72,87.37-169.17C723.2,600.78,765.36,481,788.14,409.7
		c22.79-71.3,50.46-200.58,22.55-225.56c-14.25-12.75-22.55-7.21-26.84,34.47c-5.49,53.26-23.24,124.13-38.06,170.52
		c-22.79,71.3-64.94,191.08-106.24,284.53c-41.3,93.45-81.98,162.05-87.37,169.18C543.66,854.08,530.32,858.54,517.66,859.08z
		 M546.92,725.18c-0.06-43.88,3.18-102.49,8.81-159.78c1.18-12.06,2.35-23.47,3.45-34.24c8.9-87.17,13.51-132.35-10.57-138.41
		c-8.71-2.19-16.31-1.91-25.8,4.76c3.07,21.42-0.2,56.19-5.15,104.86c0.05-0.09,0.1-0.17,0.15-0.26c-0.07,0.29-0.14,0.58-0.22,0.88
		c-0.25,2.49-0.51,5.03-0.77,7.59c-1.1,10.77-2.26,22.18-3.45,34.24c-10.77,109.65-12.78,224.12,0.28,230.92
		C518.55,778.3,528.94,763.02,546.92,725.18z M275.79,695.19c3.41-35.8,9.9-79.81,19.6-126.48
		c21.63-104.13,36.4-153.23,41.22-160.74c1.3-2.03,4.76-5.18,9.08-9.12c11.66-10.63,29.58-26.97,28.31-42.36
		c-2.22-26.84-10.84-37.21-38.78-31.13c-1.63,0.35-3.2,0.81-4.72,1.36c0.49,2.81,0.87,5.88,1.14,9.2
		c1.27,15.39-16.65,31.73-28.31,42.36c-4.32,3.94-7.78,7.09-9.08,9.12c-4.82,7.51-19.59,56.61-41.22,160.73
		C231.91,649.78,225.99,738.77,234,757.96c0.03,0.07,0.06,0.14,0.08,0.21C235.34,761.24,235.7,762.15,275.79,695.19z M358.19,424.85
		c0,0,0.02-0.03,0.07-0.08L358.19,424.85z"></path>
</g>
<g id="SvgjsG1001">
	<path class="st13" d="M195.4,304.74c13.72-24.77,28.3-50.51,51.9-66.17s59.02-17.42,77.69,3.88c14.49,16.53,14.67,41.74,7.24,62.42
		c-7.44,20.68-21.23,38.34-32.99,56.9c-54.64,86.26-65.53,192.22-75.01,293.88c-1.57,16.83-1.38,37.39,13.1,46.11
		c10.39,6.25,24.36,3.04,33.9-4.45c9.54-7.48,15.64-18.41,21.48-29.03c51.86-94.2,103.71-188.39,155.57-282.59
		c9.8-17.8,19.82-35.89,34.46-49.97s34.88-23.81,55-21.01c26.56,3.7,46.22,28.38,52.76,54.39s2.72,53.34-0.74,79.93
		c-10.92,83.88-17.93,168.26-20.99,252.79c-0.48,13.29-0.18,28.33,9.53,37.42c11.26,10.54,30.49,7.26,42.07-2.92
		s17.4-25.25,22.81-39.7c12.46-33.3,24.92-66.59,37.38-99.89c15.38-41.1,30.76-82.19,46.14-123.29
		c38.93-104.03,78.22-209.57,88.68-320.16c2.76-29.15,4.01-60.12,20.31-84.45c16.3-24.33,54.41-36.67,75.12-15.96
		c12.15,12.15,14.24,30.91,14.34,48.09c0.28,45.13-8.35,89.81-18.12,133.87c-53.4,240.8-142.3,473.69-262.94,688.82
		c-17.27,30.8-39.9,64.54-74.91,69.18c-24.16,3.21-48.41-9.31-64.65-27.49s-25.65-41.38-33.13-64.57
		c-32.42-100.51-33.65-210.84-3.48-312.05C406,693.81,344.09,798.9,282.18,903.98c-14.25,24.19-29.25,49.2-52.51,64.93
		s-57.32,19.27-78.11,0.4c-14.24-12.92-19.26-32.91-23.06-51.75C87.08,712.56,93.68,488.44,195.4,304.74z"></path>
	<path class="st14" d="M424.35,626.25c8.09-72.5,24.09-143.34,31.95-175.23C396.11,553.46,264.24,776.79,226.96,839.2
		c-3.01,5.03-5.92,9.93-8.74,14.68c-26.84,45.2-45.81,77.13-66.77,87.01c5.84,11.39,12.51,18.76,19.45,22.98
		c39.22,23.89,61.85-14.21,102.75-83.08l0.03-0.04c2.81-4.74,5.71-9.62,8.71-14.64C305.93,826.69,367.22,723.06,424.35,626.25z
		 M419.22,705.47c-45.22,76.56-87.6,148.15-106.29,179.44c-2.89,4.83-5.74,9.65-8.57,14.43c-18.56,31.31-35.97,60.69-53.5,79.34
		c-10.7,11.39-24.93,22.79-43.63,26.78c-19.88,4.25-38.43-1.17-54.45-10.91c-20.08-12.23-29.48-30.68-40.86-51.78
		c-11.38-21.1-48.39-107.71-27.51-286.89c22.28-191.2,57.83-306.92,68.3-340.21c0.48-1.53,0.97-3.1,1.47-4.72
		c10.43-33.45,30.87-67.46,59.86-83.97c11.43-6.51,18.75-8.67,25.53-11.24c8.88-3.37,20.74-5.47,27.09-6.18
		c21.81-2.43,46.07-4.26,67.3,14.33c19.54,17.1,23.58,42.84,25.07,60.96c1.42,17.16-4.63,31.7-10.53,41.81
		c-6.03,10.34-13.79,19.3-20.53,26.28c-6.21,6.45-12.64,12.3-17.36,16.6l-1.3,1.18c-2.06,1.88-3.58,3.29-4.74,4.4
		c-0.59,1.5-1.68,4.38-3.26,9.17c-2.85,8.66-6.55,21.15-11.02,37.93c-8.94,33.49-20.69,82.92-34.75,150.6
		c-5.83,28.08-10.75,55.36-14.78,81.09c12.8-21.51,27.27-45.83,43.63-73.34c152.07-255.68,175.76-290.61,222.94-293.16
		c3.75,0,8.46-0.71,15.54,0c7.08,0.71,14.98,2.68,14.98,2.68s8.46,1.55,24.42,6.89c23.79,7.96,35.13,26.59,41.63,45.16
		c5.8,16.59,7.06,36.32,6.89,55.95c-0.28,31.04-4.55,72.84-9.7,123.22c-1.41,13.83-2.89,28.31-4.37,43.39
		c-4,40.74-7.05,81.89-8.98,119.98c23.06-53.98,51.58-123.72,86.48-211.33c65.51-164.44,96.13-281.23,115.15-353.76
		c20.45-78.03,29.45-85.24,49.02-95.78c9.48-5.1,15.46-6.16,17.76-6.46c6.38-0.84,8.47-1.67,21.37-0.84
		c22.75,1.55,33.69,12.32,40.79,18.67c11.32,10.14,17.45,23.26,20.97,34.68c3.61,11.69,5.37,24.48,6.1,37.15
		c1.48,25.34-0.9,55.14-5.16,85.22c-8.55,60.43-25.59,128.03-40.97,176.18c-30.02,93.95-85.62,251.97-140.35,375.82
		c-27.44,62.1-54.67,115.95-75.98,155.51c-20.66,38.36-37.01,65.66-42.49,72.89c-17.13,22.62-41.67,31.8-62.56,34.37
		c-20.53,2.52-41.53-0.73-57.47-7.64c-20.64-8.95-31.95-20.67-42.22-35.48c-10.27-14.81-19.43-30.09-23.87-39.36
		c-8.42-17.58-14.28-34.89-18.87-52.26C430.04,851.62,417.34,800.81,419.22,705.47z M511.53,944.95c6.72,9.9,14.46,17.9,22.63,21.45
		c19.64,8.52,58.44,9.95,77.94-15.79c7.06-9.32,60.29-99.07,114.31-221.33c54.03-122.26,109.18-278.97,139-372.26
		c29.81-93.29,66.01-262.43,29.5-295.11c-18.64-16.68-29.5-9.43-35.12,45.1c-7.18,69.68-30.41,162.4-49.8,223.09
		c-29.81,93.29-84.97,250-138.99,372.26c-54.03,122.27-107.25,212.01-114.31,221.34C545.54,938.4,528.1,944.23,511.53,944.95z
		 M549.82,769.77c-0.07-57.41,4.16-134.08,11.52-209.04c1.55-15.78,3.07-30.71,4.51-44.8c11.64-114.04,17.67-173.16-13.83-181.09
		c-11.39-2.87-21.34-2.51-33.76,6.23c4.02,28.02-0.26,73.51-6.74,137.19c0.07-0.11,0.13-0.23,0.2-0.34
		c-0.09,0.38-0.19,0.76-0.28,1.15c-0.33,3.26-0.67,6.57-1.01,9.93c-1.44,14.09-2.96,29.02-4.51,44.8
		c-14.09,143.45-16.72,293.22,0.37,302.11C512.69,839.26,526.29,819.26,549.82,769.77z M195.09,730.53
		c4.46-46.84,12.96-104.41,25.64-165.47c28.3-136.23,47.63-200.47,53.93-210.29c1.7-2.65,6.23-6.78,11.88-11.93
		c15.25-13.9,38.7-35.29,37.04-55.42c-2.9-35.12-14.18-48.69-50.74-40.73c-2.13,0.46-4.19,1.06-6.17,1.78
		c0.65,3.68,1.13,7.7,1.49,12.04c1.66,20.13-21.79,41.52-37.04,55.42c-5.65,5.15-10.17,9.28-11.88,11.93
		c-6.3,9.82-25.63,74.06-53.93,210.29c-27.62,132.97-35.37,249.4-24.89,274.51c0.04,0.09,0.07,0.18,0.11,0.27
		C142.16,816.95,142.64,818.13,195.09,730.53z M302.9,376.84c0,0,0.03-0.03,0.09-0.1L302.9,376.84z"></path>
</g>
<g id="SvgjsG1000" class="st0">
	<g class="st10">
		<g>
			<g>
				<path d="M0,512v512h512C229.23,1024,0,794.77,0,512z"></path>
				<path d="M512,1024h512V512C1024,794.77,794.77,1024,512,1024z"></path>
				<path d="M512,0H0v512C0,229.23,229.23,0,512,0z"></path>
				<path d="M512,0c282.77,0,512,229.23,512,512V0H512z"></path>
			</g>
		</g>
	</g>
	<circle class="st15" cx="512" cy="512" r="512"></circle>
</g>
</svg><style>@media (prefers-color-scheme: light) { :root { filter: none; } }
@media (prefers-color-scheme: dark) { :root { filter: none; } }
</style></svg>