<?xml version="1.0" encoding="utf-8"?>
<!-- Generator: Adobe Adobe Illustrator 24.2.0, SVG Export Plug-In . SVG Version: 6.00 Build 0)  -->
<svg version="1.1" xmlns="http://www.w3.org/2000/svg" xmlns:xlink="http://www.w3.org/1999/xlink" x="0px" y="0px" width="1024px"
	 height="1024px" viewBox="0 0 1024 1024" style="enable-background:new 0 0 1024 1024;" xml:space="preserve">
<style type="text/css">
	.st14{fill-rule:evenodd;clip-rule:evenodd;fill:#F7F7F7;}
</style>
<g id="Layer_7">
	<path class="st14" d="M424.35,626.25c8.09-72.5,24.09-143.34,31.95-175.23C396.11,553.46,264.24,776.79,226.96,839.2
		c-3.01,5.03-5.92,9.93-8.74,14.68c-26.84,45.2-45.81,77.13-66.77,87.01c5.84,11.39,12.51,18.76,19.45,22.98
		c39.22,23.89,61.85-14.21,102.75-83.08l0.03-0.04c2.81-4.74,5.71-9.62,8.71-14.64C305.93,826.69,367.22,723.06,424.35,626.25z
		 M419.22,705.47c-45.22,76.56-87.6,148.15-106.29,179.44c-2.89,4.83-5.74,9.65-8.57,14.43c-18.56,31.31-35.97,60.69-53.5,79.34
		c-10.7,11.39-24.93,22.79-43.63,26.78c-19.88,4.25-38.43-1.17-54.45-10.91c-20.08-12.23-29.48-30.68-40.86-51.78
		c-11.38-21.1-48.39-107.71-27.51-286.89c22.28-191.2,57.83-306.92,68.3-340.21c0.48-1.53,0.97-3.1,1.47-4.72
		c10.43-33.45,30.87-67.46,59.86-83.97c11.43-6.51,18.75-8.67,25.53-11.24c8.88-3.37,20.74-5.47,27.09-6.18
		c21.81-2.43,46.07-4.26,67.3,14.33c19.54,17.1,23.58,42.84,25.07,60.96c1.42,17.16-4.63,31.7-10.53,41.81
		c-6.03,10.34-13.79,19.3-20.53,26.28c-6.21,6.45-12.64,12.3-17.36,16.6l-1.3,1.18c-2.06,1.88-3.58,3.29-4.74,4.4
		c-0.59,1.5-1.68,4.38-3.26,9.17c-2.85,8.66-6.55,21.15-11.02,37.93c-8.94,33.49-20.69,82.92-34.75,150.6
		c-5.83,28.08-10.75,55.36-14.78,81.09c12.8-21.51,27.27-45.83,43.63-73.34c152.07-255.68,175.76-290.61,222.94-293.16
		c3.75,0,8.46-0.71,15.54,0c7.08,0.71,14.98,2.68,14.98,2.68s8.46,1.55,24.42,6.89c23.79,7.96,35.13,26.59,41.63,45.16
		c5.8,16.59,7.06,36.32,6.89,55.95c-0.28,31.04-4.55,72.84-9.7,123.22c-1.41,13.83-2.89,28.31-4.37,43.39
		c-4,40.74-7.05,81.89-8.98,119.98c23.06-53.98,51.58-123.72,86.48-211.33c65.51-164.44,96.13-281.23,115.15-353.76
		c20.45-78.03,29.45-85.24,49.02-95.78c9.48-5.1,15.46-6.16,17.76-6.46c6.38-0.84,8.47-1.67,21.37-0.84
		c22.75,1.55,33.69,12.32,40.79,18.67c11.32,10.14,17.45,23.26,20.97,34.68c3.61,11.69,5.37,24.48,6.1,37.15
		c1.48,25.34-0.9,55.14-5.16,85.22c-8.55,60.43-25.59,128.03-40.97,176.18c-30.02,93.95-85.62,251.97-140.35,375.82
		c-27.44,62.1-54.67,115.95-75.98,155.51c-20.66,38.36-37.01,65.66-42.49,72.89c-17.13,22.62-41.67,31.8-62.56,34.37
		c-20.53,2.52-41.53-0.73-57.47-7.64c-20.64-8.95-31.95-20.67-42.22-35.48c-10.27-14.81-19.43-30.09-23.87-39.36
		c-8.42-17.58-14.28-34.89-18.87-52.26C430.04,851.62,417.34,800.81,419.22,705.47z M511.53,944.95c6.72,9.9,14.46,17.9,22.63,21.45
		c19.64,8.52,58.44,9.95,77.94-15.79c7.06-9.32,60.29-99.07,114.31-221.33c54.03-122.26,109.18-278.97,139-372.26
		c29.81-93.29,66.01-262.43,29.5-295.11c-18.64-16.68-29.5-9.43-35.12,45.1c-7.18,69.68-30.41,162.4-49.8,223.09
		c-29.81,93.29-84.97,250-138.99,372.26c-54.03,122.27-107.25,212.01-114.31,221.34C545.54,938.4,528.1,944.23,511.53,944.95z
		 M549.82,769.77c-0.07-57.41,4.16-134.08,11.52-209.04c1.55-15.78,3.07-30.71,4.51-44.8c11.64-114.04,17.67-173.16-13.83-181.09
		c-11.39-2.87-21.34-2.51-33.76,6.23c4.02,28.02-0.26,73.51-6.74,137.19c0.07-0.11,0.13-0.23,0.2-0.34
		c-0.09,0.38-0.19,0.76-0.28,1.15c-0.33,3.26-0.67,6.57-1.01,9.93c-1.44,14.09-2.96,29.02-4.51,44.8
		c-14.09,143.45-16.72,293.22,0.37,302.11C512.69,839.26,526.29,819.26,549.82,769.77z M195.09,730.53
		c4.46-46.84,12.96-104.41,25.64-165.47c28.3-136.23,47.63-200.47,53.93-210.29c1.7-2.65,6.23-6.78,11.88-11.93
		c15.25-13.9,38.7-35.29,37.04-55.42c-2.9-35.12-14.18-48.69-50.74-40.73c-2.13,0.46-4.19,1.06-6.17,1.78
		c0.65,3.68,1.13,7.7,1.49,12.04c1.66,20.13-21.79,41.52-37.04,55.42c-5.65,5.15-10.17,9.28-11.88,11.93
		c-6.3,9.82-25.63,74.06-53.93,210.29c-27.62,132.97-35.37,249.4-24.89,274.51c0.04,0.09,0.07,0.18,0.11,0.27
		C142.16,816.95,142.64,818.13,195.09,730.53z M302.9,376.84c0,0,0.03-0.03,0.09-0.1L302.9,376.84z"/>
</g>
</svg>
