<?xml version="1.0" encoding="utf-8"?>
<!-- Generator: Adobe Adobe Illustrator 24.2.0, SVG Export Plug-In . SVG Version: 6.00 Build 0)  -->
<svg version="1.1" xmlns="http://www.w3.org/2000/svg" xmlns:xlink="http://www.w3.org/1999/xlink" x="0px" y="0px" width="1024px"
	 height="1024px" viewBox="0 0 1024 1024" style="enable-background:new 0 0 1024 1024;" xml:space="preserve">
<style type="text/css">
	.st0{fill-rule:evenodd;clip-rule:evenodd;fill:#FFFFFF;}
	.st1{fill-rule:evenodd;clip-rule:evenodd;}
	.st2{display:none;}
	.st3{fill-rule:evenodd;clip-rule:evenodd;fill:url(#SVGID_1_);}
	.st4{display:inline;fill-rule:evenodd;clip-rule:evenodd;fill:url(#SVGID_2_);}
	
		.st5{display:inline;opacity:0.1216;fill-rule:evenodd;clip-rule:evenodd;fill:none;stroke:#EB7209;stroke-width:6.6518;stroke-miterlimit:10;}
	.st6{display:inline;fill-rule:evenodd;clip-rule:evenodd;}
	.st7{display:none;fill-rule:evenodd;clip-rule:evenodd;fill:url(#SVGID_3_);}
	.st8{display:none;fill-rule:evenodd;clip-rule:evenodd;fill:url(#SVGID_4_);}
	.st9{display:none;fill-rule:evenodd;clip-rule:evenodd;fill:url(#SVGID_5_);}
	.st10{fill-rule:evenodd;clip-rule:evenodd;fill:url(#SVGID_6_);}
	.st11{fill:#0A0600;}
	.st12{fill:#FFB300;}
	.st13{display:none;fill:none;stroke:#000000;stroke-miterlimit:10;}
</style>
<g id="Layer_6">
	<rect class="st0" width="1024" height="1024"/>
	<rect class="st1" width="1024" height="1024"/>
</g>
<g id="Layer_1" class="st2">
	
		<radialGradient id="SVGID_1_" cx="498.2963" cy="533.1287" r="481.5471" gradientTransform="matrix(1 0 0 1.5365 0 -279.3067)" gradientUnits="userSpaceOnUse">
		<stop  offset="0" style="stop-color:#FFFFFF"/>
		<stop  offset="0.3144" style="stop-color:#FFFBEF"/>
		<stop  offset="0.507" style="stop-color:#FFF8E3"/>
		<stop  offset="0.526" style="stop-color:#FFF5D8"/>
		<stop  offset="0.622" style="stop-color:#FDE8A5"/>
		<stop  offset="0.7058" style="stop-color:#FCDF7F"/>
		<stop  offset="0.7731" style="stop-color:#FBD968"/>
		<stop  offset="0.8155" style="stop-color:#FBD760"/>
		<stop  offset="1" style="stop-color:#D48911"/>
	</radialGradient>
	<rect class="st3" width="1024" height="1024"/>
	
		<radialGradient id="SVGID_2_" cx="498.2963" cy="533.1287" r="481.5471" gradientTransform="matrix(1 0 0 1.5365 0 -279.3067)" gradientUnits="userSpaceOnUse">
		<stop  offset="0" style="stop-color:#FFFFFF"/>
		<stop  offset="0.2945" style="stop-color:#FFFFFD"/>
		<stop  offset="0.4004" style="stop-color:#FFFDF6"/>
		<stop  offset="0.4411" style="stop-color:#FFFCF1"/>
		<stop  offset="0.4851" style="stop-color:#FFFBEF"/>
		<stop  offset="0.5009" style="stop-color:#FFFAE8"/>
		<stop  offset="0.507" style="stop-color:#FFF8E3"/>
		<stop  offset="0.6384" style="stop-color:#FFF8E1"/>
		<stop  offset="0.6858" style="stop-color:#FFF6DA"/>
		<stop  offset="0.7195" style="stop-color:#FEF3CF"/>
		<stop  offset="0.7468" style="stop-color:#FEEFBE"/>
		<stop  offset="0.7702" style="stop-color:#FDE9A8"/>
		<stop  offset="0.7909" style="stop-color:#FCE28C"/>
		<stop  offset="0.8091" style="stop-color:#FBDA6D"/>
		<stop  offset="0.8155" style="stop-color:#FBD760"/>
		<stop  offset="0.9025" style="stop-color:#FAD55E"/>
		<stop  offset="0.9339" style="stop-color:#F7CE57"/>
		<stop  offset="0.9562" style="stop-color:#F1C34C"/>
		<stop  offset="0.9742" style="stop-color:#E9B23B"/>
		<stop  offset="0.9895" style="stop-color:#DE9D25"/>
		<stop  offset="1" style="stop-color:#D48911"/>
	</radialGradient>
	<rect class="st4" width="1024" height="1024"/>
	
		<ellipse transform="matrix(0.4453 -0.8954 0.8954 0.4453 -195.0128 755.2162)" class="st5" cx="512" cy="535" rx="433.86" ry="300"/>
	<g>
		<path class="st6" d="M451.02,615.49c6.18-55.41,18.41-109.56,24.42-133.93c-46.01,78.3-146.8,249-175.29,296.7
			c-2.3,3.85-4.52,7.59-6.68,11.22c-20.52,34.54-35.02,58.96-51.03,66.5c4.46,8.71,9.56,14.34,14.86,17.57
			c29.98,18.26,47.27-10.86,78.53-63.5l0.02-0.03c2.15-3.62,4.37-7.35,6.66-11.19C360.51,768.7,407.36,689.48,451.02,615.49z
			 M447.1,676.04c-34.56,58.52-66.96,113.24-81.24,137.15c-2.21,3.7-4.39,7.38-6.55,11.03c-14.18,23.93-27.49,46.39-40.89,60.64
			c-8.18,8.7-19.06,17.42-33.35,20.47c-15.2,3.25-29.37-0.89-41.62-8.34c-15.35-9.35-22.53-23.45-31.23-39.58
			c-8.7-16.13-36.98-82.33-21.03-219.28C208.22,492,235.4,403.55,243.4,378.1c0.37-1.17,0.74-2.37,1.13-3.6
			c7.97-25.57,23.6-51.56,45.75-64.18c8.74-4.98,14.33-6.62,19.51-8.59c6.79-2.58,15.85-4.18,20.71-4.73
			c16.67-1.86,35.22-3.25,51.44,10.95c14.93,13.07,18.02,32.74,19.17,46.59c1.08,13.11-3.54,24.23-8.05,31.96
			c-4.61,7.9-10.54,14.75-15.69,20.08c-4.75,4.93-9.66,9.4-13.27,12.69l-0.99,0.9c-1.58,1.44-2.74,2.51-3.62,3.36
			c-0.45,1.15-1.28,3.35-2.49,7.01c-2.18,6.62-5.01,16.17-8.43,28.99c-6.83,25.59-15.82,63.38-26.56,115.11
			c-4.46,21.46-8.22,42.31-11.29,61.98c9.79-16.44,20.85-35.03,33.35-56.06C460.3,385.14,478.42,358.45,514.47,356.5
			c2.86,0,6.47-0.54,11.88,0c5.41,0.54,11.45,2.05,11.45,2.05s6.47,1.18,18.67,5.26c18.18,6.08,26.85,20.32,31.82,34.52
			c4.43,12.68,5.4,27.76,5.27,42.76c-0.21,23.73-3.48,55.68-7.41,94.18c-1.08,10.57-2.21,21.64-3.34,33.16
			c-3.06,31.14-5.39,62.59-6.86,91.71c17.63-41.26,39.43-94.57,66.1-161.53c50.07-125.69,73.48-214.96,88.01-270.39
			c15.63-59.64,22.51-65.15,37.47-73.21c7.24-3.9,11.82-4.71,13.57-4.94c4.88-0.64,6.47-1.28,16.33-0.64
			c17.39,1.18,25.75,9.41,31.18,14.27c8.66,7.75,13.34,17.78,16.03,26.51c2.76,8.94,4.1,18.71,4.67,28.4
			c1.13,19.37-0.69,42.15-3.94,65.13c-6.54,46.19-19.56,97.86-31.31,134.66c-22.95,71.81-65.44,192.59-107.27,287.25
			c-20.97,47.47-41.79,88.62-58.08,118.86c-15.79,29.32-28.29,50.19-32.48,55.72c-13.09,17.29-31.85,24.3-47.82,26.27
			c-15.69,1.93-31.74-0.55-43.92-5.84c-15.78-6.84-24.42-15.8-32.27-27.12c-7.85-11.32-14.85-23-18.24-30.09
			c-6.43-13.44-10.92-26.67-14.42-39.95C455.38,787.75,445.67,748.91,447.1,676.04z M517.66,859.08
			c5.14,7.57,11.05,13.68,17.3,16.39c15.02,6.51,44.67,7.61,59.57-12.07c5.4-7.13,46.08-75.72,87.37-169.17
			C723.2,600.78,765.36,481,788.14,409.7c22.79-71.3,50.46-200.58,22.55-225.56c-14.25-12.75-22.55-7.21-26.84,34.47
			c-5.49,53.26-23.24,124.13-38.06,170.52c-22.79,71.3-64.94,191.08-106.24,284.53c-41.3,93.45-81.98,162.05-87.37,169.18
			C543.66,854.08,530.32,858.54,517.66,859.08z M546.92,725.18c-0.06-43.88,3.18-102.49,8.81-159.78
			c1.18-12.06,2.35-23.47,3.45-34.24c8.9-87.17,13.51-132.35-10.57-138.41c-8.71-2.19-16.31-1.91-25.8,4.76
			c3.07,21.42-0.2,56.19-5.15,104.86c0.05-0.09,0.1-0.17,0.15-0.26c-0.07,0.29-0.14,0.58-0.22,0.88c-0.25,2.49-0.51,5.03-0.77,7.59
			c-1.1,10.77-2.26,22.18-3.45,34.24c-10.77,109.65-12.78,224.12,0.28,230.92C518.55,778.3,528.94,763.02,546.92,725.18z
			 M275.79,695.19c3.41-35.8,9.9-79.81,19.6-126.48c21.63-104.13,36.4-153.23,41.22-160.74c1.3-2.03,4.76-5.18,9.08-9.12
			c11.66-10.63,29.58-26.97,28.31-42.36c-2.22-26.84-10.84-37.21-38.78-31.13c-1.63,0.35-3.2,0.81-4.72,1.36
			c0.49,2.81,0.87,5.88,1.14,9.2c1.27,15.39-16.65,31.73-28.31,42.36c-4.32,3.94-7.78,7.09-9.08,9.12
			c-4.82,7.51-19.59,56.61-41.22,160.73C231.91,649.78,225.99,738.77,234,757.96c0.03,0.07,0.06,0.14,0.08,0.21
			C235.34,761.24,235.7,762.15,275.79,695.19z M358.19,424.85c0,0,0.02-0.03,0.07-0.08L358.19,424.85z"/>
	</g>
</g>
<g id="Layer_5">
	
		<radialGradient id="SVGID_3_" cx="497.8885" cy="526.562" r="515.1108" gradientTransform="matrix(1 0 0 1.5365 0 -279.3067)" gradientUnits="userSpaceOnUse">
		<stop  offset="0" style="stop-color:#A8A8A8"/>
		<stop  offset="0.3286" style="stop-color:#A6A6A6"/>
		<stop  offset="0.447" style="stop-color:#A09F9F"/>
		<stop  offset="0.5314" style="stop-color:#949494"/>
		<stop  offset="0.5991" style="stop-color:#848383"/>
		<stop  offset="0.655" style="stop-color:#706F6E"/>
		<stop  offset="0.7516" style="stop-color:#6E6D6C"/>
		<stop  offset="0.7864" style="stop-color:#676665"/>
		<stop  offset="0.8112" style="stop-color:#5C5B5A"/>
		<stop  offset="0.8311" style="stop-color:#4B4A49"/>
		<stop  offset="0.8476" style="stop-color:#373634"/>
		<stop  offset="0.9284" style="stop-color:#353432"/>
		<stop  offset="0.9575" style="stop-color:#2F2E2B"/>
		<stop  offset="0.9783" style="stop-color:#232220"/>
		<stop  offset="0.9949" style="stop-color:#13120F"/>
		<stop  offset="1" style="stop-color:#0D0B08"/>
	</radialGradient>
	<rect class="st7" width="1024" height="1024"/>
	
		<radialGradient id="SVGID_4_" cx="497.8885" cy="526.562" r="571.3029" gradientTransform="matrix(1 0 0 1.5365 0 -279.3067)" gradientUnits="userSpaceOnUse">
		<stop  offset="0" style="stop-color:#E8D2A0"/>
		<stop  offset="0.2854" style="stop-color:#E6D09E"/>
		<stop  offset="0.3882" style="stop-color:#DFC997"/>
		<stop  offset="0.4615" style="stop-color:#D4BE8C"/>
		<stop  offset="0.5208" style="stop-color:#C3AD7B"/>
		<stop  offset="0.5715" style="stop-color:#AE9865"/>
		<stop  offset="0.6157" style="stop-color:#937D4A"/>
		<stop  offset="0.655" style="stop-color:#755F2B"/>
		<stop  offset="0.7483" style="stop-color:#735D2A"/>
		<stop  offset="0.7819" style="stop-color:#6C5827"/>
		<stop  offset="0.8059" style="stop-color:#614D22"/>
		<stop  offset="0.8252" style="stop-color:#503F1A"/>
		<stop  offset="0.8416" style="stop-color:#3A2D10"/>
		<stop  offset="0.8476" style="stop-color:#30240B"/>
		<stop  offset="0.9322" style="stop-color:#2E230B"/>
		<stop  offset="0.9627" style="stop-color:#271E0A"/>
		<stop  offset="0.9844" style="stop-color:#1C1509"/>
		<stop  offset="1" style="stop-color:#0D0B08"/>
	</radialGradient>
	<rect class="st8" width="1024" height="1024"/>
	
		<radialGradient id="SVGID_5_" cx="497.8885" cy="526.562" r="571.3029" gradientTransform="matrix(1 0 0 1.5365 0 -279.3067)" gradientUnits="userSpaceOnUse">
		<stop  offset="0" style="stop-color:#A0A1E8"/>
		<stop  offset="0.2854" style="stop-color:#9E9FE6"/>
		<stop  offset="0.3882" style="stop-color:#9799DF"/>
		<stop  offset="0.4615" style="stop-color:#8C8DD4"/>
		<stop  offset="0.5208" style="stop-color:#7B7DC3"/>
		<stop  offset="0.5715" style="stop-color:#6568AE"/>
		<stop  offset="0.6157" style="stop-color:#4A4E93"/>
		<stop  offset="0.655" style="stop-color:#2B3075"/>
		<stop  offset="0.7483" style="stop-color:#2A2F73"/>
		<stop  offset="0.7819" style="stop-color:#272C6C"/>
		<stop  offset="0.8059" style="stop-color:#222661"/>
		<stop  offset="0.8252" style="stop-color:#1A1E50"/>
		<stop  offset="0.8416" style="stop-color:#10133A"/>
		<stop  offset="0.8476" style="stop-color:#0B0E30"/>
		<stop  offset="0.93" style="stop-color:#0B0E2E"/>
		<stop  offset="0.9597" style="stop-color:#0B0D27"/>
		<stop  offset="0.9807" style="stop-color:#0C0C1C"/>
		<stop  offset="0.9977" style="stop-color:#0D0B0B"/>
		<stop  offset="1" style="stop-color:#0D0B08"/>
	</radialGradient>
	<rect class="st9" width="1024" height="1024"/>
	
		<radialGradient id="SVGID_6_" cx="497.8885" cy="526.562" r="571.3029" gradientTransform="matrix(1 0 0 1.5365 0 -279.3067)" gradientUnits="userSpaceOnUse">
		<stop  offset="0" style="stop-color:#9FA0C4"/>
		<stop  offset="0.2895" style="stop-color:#9D9EC2"/>
		<stop  offset="0.3938" style="stop-color:#9697BB"/>
		<stop  offset="0.4681" style="stop-color:#8B8CB0"/>
		<stop  offset="0.5282" style="stop-color:#7A7B9F"/>
		<stop  offset="0.5797" style="stop-color:#64668A"/>
		<stop  offset="0.6244" style="stop-color:#494C70"/>
		<stop  offset="0.655" style="stop-color:#323559"/>
		<stop  offset="0.7586" style="stop-color:#303357"/>
		<stop  offset="0.7959" style="stop-color:#2A2D50"/>
		<stop  offset="0.8224" style="stop-color:#1F2245"/>
		<stop  offset="0.8438" style="stop-color:#0F1234"/>
		<stop  offset="0.8476" style="stop-color:#0B0E30"/>
		<stop  offset="0.93" style="stop-color:#0B0E2E"/>
		<stop  offset="0.9597" style="stop-color:#0B0D27"/>
		<stop  offset="0.9807" style="stop-color:#0C0C1C"/>
		<stop  offset="0.9977" style="stop-color:#0D0B0B"/>
		<stop  offset="1" style="stop-color:#0D0B08"/>
	</radialGradient>
	<rect class="st10" width="1024" height="1024"/>
	<g>
		<g>
			<path class="st11" d="M512,32c64.81,0,127.67,12.69,186.83,37.71c57.15,24.17,108.49,58.79,152.58,102.88
				s78.71,95.43,102.88,152.58C979.31,384.33,992,447.19,992,512s-12.69,127.67-37.71,186.83
				c-24.17,57.15-58.79,108.49-102.88,152.58s-95.43,78.71-152.58,102.88C639.67,979.31,576.81,992,512,992
				s-127.67-12.69-186.83-37.71c-57.15-24.17-108.49-58.79-152.58-102.88S93.88,755.98,69.71,698.83C44.69,639.67,32,576.81,32,512
				s12.69-127.67,37.71-186.83c24.17-57.15,58.79-108.49,102.88-152.58s95.43-78.71,152.58-102.88C384.33,44.69,447.19,32,512,32
				 M512,0C229.23,0,0,229.23,0,512s229.23,512,512,512s512-229.23,512-512S794.77,0,512,0L512,0z"/>
		</g>
	</g>
	<g>
		<path class="st12" d="M512,16c66.97,0,131.92,13.11,193.06,38.97c59.06,24.98,112.11,60.75,157.66,106.3
			c45.56,45.56,81.32,98.6,106.3,157.66C994.89,380.08,1008,445.03,1008,512s-13.11,131.92-38.97,193.06
			c-24.98,59.06-60.75,112.11-106.3,157.66c-45.56,45.56-98.6,81.32-157.66,106.3C643.92,994.89,578.97,1008,512,1008
			s-131.92-13.11-193.06-38.97c-59.06-24.98-112.11-60.75-157.66-106.3c-45.56-45.56-81.32-98.6-106.3-157.66
			C29.11,643.92,16,578.97,16,512s13.11-131.92,38.97-193.06c24.98-59.06,60.75-112.11,106.3-157.66
			c45.56-45.56,98.6-81.32,157.66-106.3C380.08,29.11,445.03,16,512,16 M512,0C229.23,0,0,229.23,0,512s229.23,512,512,512
			s512-229.23,512-512S794.77,0,512,0L512,0z"/>
	</g>
</g>
<g id="Layer_3">
	<g id="Layer_4">
		<path class="st0" d="M276.03,369.74c10.49-18.94,21.63-38.61,39.67-50.58c18.03-11.97,45.11-13.32,59.38,2.96
			c11.07,12.63,11.22,31.9,5.53,47.71c-5.68,15.81-16.22,29.3-25.21,43.49c-41.76,65.93-50.09,146.92-57.33,224.63
			c-1.2,12.87-1.05,28.58,10.02,35.24c7.94,4.78,18.62,2.32,25.91-3.4c7.29-5.72,11.95-14.07,16.42-22.19
			c39.64-72,79.27-144,118.91-216c7.49-13.6,15.15-27.43,26.34-38.2s26.66-18.2,42.04-16.06c20.3,2.82,35.33,21.69,40.33,41.57
			c5,19.88,2.08,40.77-0.57,61.09c-8.35,64.11-13.7,128.61-16.04,193.22c-0.37,10.16-0.14,21.66,7.28,28.6
			c8.61,8.06,23.3,5.55,32.16-2.24c8.85-7.79,13.3-19.3,17.43-30.34c9.52-25.45,19.05-50.9,28.57-76.35
			c11.76-31.41,23.51-62.82,35.27-94.24c29.76-79.52,59.79-160.18,67.78-244.71c2.11-22.28,3.07-45.95,15.52-64.55
			c12.46-18.6,41.59-28.03,57.42-12.2c9.28,9.28,10.88,23.63,10.96,36.76c0.21,34.49-6.38,68.65-13.85,102.32
			c-40.82,184.05-108.77,362.06-200.98,526.5c-13.2,23.54-30.5,49.33-57.26,52.88c-18.47,2.45-37-7.12-49.42-21.01
			c-12.41-13.89-19.6-31.62-25.32-49.36c-24.78-76.82-25.72-161.16-2.66-238.51C437,667.13,389.68,747.45,342.36,827.77
			c-10.89,18.49-22.36,37.6-40.14,49.63c-17.78,12.02-43.81,14.73-59.7,0.31c-10.88-9.87-14.72-25.15-17.63-39.55
			C193.23,681.46,198.28,510.15,276.03,369.74z"/>
	</g>
	<path class="st1" d="M451.02,615.49c6.18-55.41,18.41-109.56,24.42-133.93c-46.01,78.3-146.8,249-175.29,296.7
		c-2.3,3.85-4.52,7.59-6.68,11.22c-20.52,34.54-35.02,58.96-51.03,66.5c4.46,8.71,9.56,14.34,14.86,17.57
		c29.98,18.26,47.27-10.86,78.53-63.5l0.02-0.03c2.15-3.62,4.37-7.35,6.66-11.19C360.51,768.7,407.36,689.48,451.02,615.49z
		 M447.1,676.04c-34.56,58.52-66.96,113.24-81.24,137.15c-2.21,3.7-4.39,7.38-6.55,11.03c-14.18,23.93-27.49,46.39-40.89,60.64
		c-8.18,8.7-19.06,17.42-33.35,20.47c-15.2,3.25-29.37-0.89-41.62-8.34c-15.35-9.35-22.53-23.45-31.23-39.58
		c-8.7-16.13-36.98-82.33-21.03-219.28C208.22,492,235.4,403.55,243.4,378.1c0.37-1.17,0.74-2.37,1.13-3.6
		c7.97-25.57,23.6-51.56,45.75-64.18c8.74-4.98,14.33-6.62,19.51-8.59c6.79-2.58,15.85-4.18,20.71-4.73
		c16.67-1.86,35.22-3.25,51.44,10.95c14.93,13.07,18.02,32.74,19.17,46.59c1.08,13.11-3.54,24.23-8.05,31.96
		c-4.61,7.9-10.54,14.75-15.69,20.08c-4.75,4.93-9.66,9.4-13.27,12.69l-0.99,0.9c-1.58,1.44-2.74,2.51-3.62,3.36
		c-0.45,1.15-1.28,3.35-2.49,7.01c-2.18,6.62-5.01,16.17-8.43,28.99c-6.83,25.59-15.82,63.38-26.56,115.11
		c-4.46,21.46-8.22,42.31-11.29,61.98c9.79-16.44,20.85-35.03,33.35-56.06C460.3,385.14,478.42,358.45,514.47,356.5
		c2.86,0,6.47-0.54,11.88,0c5.41,0.54,11.45,2.05,11.45,2.05s6.47,1.18,18.67,5.26c18.18,6.08,26.85,20.32,31.82,34.52
		c4.43,12.68,5.4,27.76,5.27,42.76c-0.21,23.73-3.48,55.68-7.41,94.18c-1.08,10.57-2.21,21.64-3.34,33.16
		c-3.06,31.14-5.39,62.59-6.86,91.71c17.63-41.26,39.43-94.57,66.1-161.53c50.07-125.69,73.48-214.96,88.01-270.39
		c15.63-59.64,22.51-65.15,37.47-73.21c7.24-3.9,11.82-4.71,13.57-4.94c4.88-0.64,6.47-1.28,16.33-0.64
		c17.39,1.18,25.75,9.41,31.18,14.27c8.66,7.75,13.34,17.78,16.03,26.51c2.76,8.94,4.1,18.71,4.67,28.4
		c1.13,19.37-0.69,42.15-3.94,65.13c-6.54,46.19-19.56,97.86-31.31,134.66c-22.95,71.81-65.44,192.59-107.27,287.25
		c-20.97,47.47-41.79,88.62-58.08,118.86c-15.79,29.32-28.29,50.19-32.48,55.72c-13.09,17.29-31.85,24.3-47.82,26.27
		c-15.69,1.93-31.74-0.55-43.92-5.84c-15.78-6.84-24.42-15.8-32.27-27.12c-7.85-11.32-14.85-23-18.24-30.09
		c-6.43-13.44-10.92-26.67-14.42-39.95C455.38,787.75,445.67,748.91,447.1,676.04z M517.66,859.08c5.14,7.57,11.05,13.68,17.3,16.39
		c15.02,6.51,44.67,7.61,59.57-12.07c5.4-7.13,46.08-75.72,87.37-169.17C723.2,600.78,765.36,481,788.14,409.7
		c22.79-71.3,50.46-200.58,22.55-225.56c-14.25-12.75-22.55-7.21-26.84,34.47c-5.49,53.26-23.24,124.13-38.06,170.52
		c-22.79,71.3-64.94,191.08-106.24,284.53c-41.3,93.45-81.98,162.05-87.37,169.18C543.66,854.08,530.32,858.54,517.66,859.08z
		 M546.92,725.18c-0.06-43.88,3.18-102.49,8.81-159.78c1.18-12.06,2.35-23.47,3.45-34.24c8.9-87.17,13.51-132.35-10.57-138.41
		c-8.71-2.19-16.31-1.91-25.8,4.76c3.07,21.42-0.2,56.19-5.15,104.86c0.05-0.09,0.1-0.17,0.15-0.26c-0.07,0.29-0.14,0.58-0.22,0.88
		c-0.25,2.49-0.51,5.03-0.77,7.59c-1.1,10.77-2.26,22.18-3.45,34.24c-10.77,109.65-12.78,224.12,0.28,230.92
		C518.55,778.3,528.94,763.02,546.92,725.18z M275.79,695.19c3.41-35.8,9.9-79.81,19.6-126.48
		c21.63-104.13,36.4-153.23,41.22-160.74c1.3-2.03,4.76-5.18,9.08-9.12c11.66-10.63,29.58-26.97,28.31-42.36
		c-2.22-26.84-10.84-37.21-38.78-31.13c-1.63,0.35-3.2,0.81-4.72,1.36c0.49,2.81,0.87,5.88,1.14,9.2
		c1.27,15.39-16.65,31.73-28.31,42.36c-4.32,3.94-7.78,7.09-9.08,9.12c-4.82,7.51-19.59,56.61-41.22,160.73
		C231.91,649.78,225.99,738.77,234,757.96c0.03,0.07,0.06,0.14,0.08,0.21C235.34,761.24,235.7,762.15,275.79,695.19z M358.19,424.85
		c0,0,0.02-0.03,0.07-0.08L358.19,424.85z"/>
</g>
<g id="Layer_2">
	<g>
		<g>
			<g>
				<path d="M0,512v512h512C229.23,1024,0,794.77,0,512z"/>
				<path d="M512,1024h512V512C1024,794.77,794.77,1024,512,1024z"/>
				<path d="M512,0H0v512C0,229.23,229.23,0,512,0z"/>
				<path d="M512,0c282.77,0,512,229.23,512,512V0H512z"/>
			</g>
		</g>
	</g>
	<circle class="st13" cx="512" cy="512" r="512"/>
</g>
</svg>
