<svg width="28" height="32" viewBox="0 0 28 32" fill="none" xmlns="http://www.w3.org/2000/svg">
<path fill-rule="evenodd" clip-rule="evenodd" d="M11.1716 19.6866C11.4327 17.3472 11.949 15.0611 12.2025 14.0323C10.2602 17.3379 6.00504 24.5447 4.80219 26.5581C4.70512 26.7206 4.61124 26.8787 4.52016 27.032C3.65403 28.4904 3.04185 29.5211 2.36559 29.8395C2.55391 30.2073 2.76934 30.4449 2.99309 30.5812C4.25877 31.3519 4.98888 30.1226 6.30864 27.9005L6.3095 27.899C6.40031 27.7462 6.4939 27.5886 6.59066 27.4266C7.35047 26.1547 9.32823 22.8107 11.1716 19.6866ZM11.0059 22.2432C9.5467 24.7136 8.17918 27.0238 7.57606 28.0333C7.48289 28.1893 7.39072 28.3448 7.29941 28.4989C6.70064 29.5092 6.13866 30.4575 5.57318 31.0591C5.22786 31.4266 4.76861 31.7945 4.16527 31.9234C3.52372 32.0604 2.92518 31.8859 2.40837 31.5712C1.76037 31.1766 1.45708 30.5812 1.08994 29.9003C0.722799 29.2195 -0.471378 26.4246 0.202288 20.6431C0.921205 14.4733 2.06852 10.7391 2.40617 9.66493C2.42169 9.61557 2.43753 9.56478 2.45374 9.51278C2.79029 8.43334 3.44994 7.33605 4.38525 6.80314C4.75421 6.59292 4.99022 6.52352 5.20907 6.44041C5.49562 6.3316 5.8782 6.26378 6.08329 6.24091C6.78693 6.16246 7.57004 6.10354 8.25515 6.7033C8.88561 7.25523 9.01597 8.08556 9.06427 8.67042C9.10997 9.22399 8.91469 9.69342 8.72456 10.0196C8.53015 10.3532 8.27949 10.6423 8.06224 10.8676C7.8617 11.0755 7.65442 11.2644 7.50208 11.4033L7.46022 11.4414C7.39369 11.5022 7.34455 11.5475 7.30723 11.5834C7.28834 11.6319 7.25316 11.7246 7.20218 11.8793C7.11015 12.1586 6.99089 12.5619 6.84645 13.1032C6.5581 14.1837 6.17874 15.7788 5.72512 17.9627C5.53692 18.8687 5.37821 19.749 5.24833 20.5794C5.66144 19.8854 6.12837 19.1004 6.6563 18.2128C11.5634 9.96218 12.328 8.83529 13.8503 8.75286C13.9712 8.75286 14.1234 8.72987 14.3517 8.75286C14.5801 8.77585 14.8353 8.83932 14.8353 8.83932C14.8353 8.83932 15.1084 8.8892 15.6233 9.0615C16.391 9.31839 16.7568 9.91944 16.9665 10.5189C17.1537 11.0541 17.1944 11.691 17.1888 12.3242C17.1799 13.3259 17.042 14.6748 16.8759 16.3004C16.8303 16.7466 16.7826 17.2139 16.7348 17.7004C16.6057 19.0149 16.5072 20.3428 16.445 21.572C17.1893 19.8301 18.1095 17.5796 19.2358 14.7527C21.3499 9.44652 22.3378 5.67778 22.9514 3.33741C23.6114 0.819493 23.9018 0.586857 24.5331 0.246798C24.8389 0.0820896 25.0322 0.0480039 25.1062 0.0382282C25.3122 0.0110234 25.3794 -0.0156232 25.7957 0.0110234C26.53 0.0608988 26.8831 0.408427 27.1121 0.613469C27.4777 0.940622 27.6753 1.36416 27.7889 1.73259C27.9052 2.10988 27.9621 2.5226 27.9859 2.93152C28.0334 3.74931 27.9567 4.71084 27.8194 5.6813C27.5434 7.63122 26.9938 9.81272 26.4973 11.3663C25.5285 14.398 23.7346 19.497 21.9686 23.4935C21.0831 25.4975 20.2043 27.2347 19.5167 28.5114C18.85 29.7493 18.3225 30.6303 18.1457 30.8637C17.593 31.5933 16.801 31.8897 16.1268 31.9726C15.4644 32.054 14.7867 31.9491 14.2725 31.7262C13.6064 31.4374 13.2414 31.0591 12.91 30.5812C12.5787 30.1033 12.2832 29.6102 12.1399 29.3109C11.8683 28.7435 11.6791 28.1849 11.5311 27.6245C11.3554 26.9589 10.9455 25.3197 11.0059 22.2432ZM13.9848 29.9706C14.2016 30.29 14.4515 30.5483 14.7152 30.6626C15.3491 30.9375 16.6011 30.9838 17.2302 30.1533C17.458 29.8525 19.1755 26.9565 20.9189 23.0112C22.6623 19.0659 24.4421 14.0091 25.404 10.9988C26.3659 7.98861 27.5342 2.53068 26.3559 1.47608C25.7544 0.937728 25.404 1.17176 25.2226 2.93152C24.9909 5.18005 24.2413 8.17196 23.6155 10.1303C22.6536 13.1406 20.8738 18.1974 19.1304 22.1427C17.387 26.088 15.6696 28.984 15.4417 29.2848C15.0823 29.7593 14.5195 29.9476 13.9848 29.9706ZM15.2203 24.3178C15.218 22.4654 15.3546 19.9911 15.5921 17.5725C15.6421 17.0634 15.6912 16.5817 15.7376 16.127C16.1133 12.4469 16.3079 10.5394 15.2913 10.2836C14.9237 10.1911 14.6026 10.2027 14.2021 10.4847C14.3318 11.3889 14.1937 12.8568 13.9845 14.9118C13.9867 14.9081 13.9888 14.9045 13.991 14.9008C13.988 14.913 13.9849 14.9254 13.9819 14.9379C13.9711 15.0432 13.9602 15.1501 13.9492 15.2585C13.9028 15.7132 13.8536 16.1949 13.8036 16.704C13.349 21.333 13.2641 26.1658 13.8155 26.4528C14.0223 26.5605 14.4611 25.915 15.2203 24.3178ZM3.7737 23.0517C3.91771 21.5401 4.19181 19.6824 4.60107 17.7121C5.51417 13.3161 6.13796 11.2431 6.34137 10.9262C6.39636 10.8406 6.54236 10.7074 6.72469 10.5412C7.2168 10.0925 7.97355 9.40256 7.9199 8.75286C7.82632 7.61958 7.46221 7.18186 6.28254 7.43844C6.21387 7.45337 6.14748 7.47266 6.08329 7.49596C6.10416 7.61481 6.11986 7.74427 6.13143 7.88437C6.18508 8.53408 5.42833 9.22404 4.93622 9.67271C4.75389 9.83895 4.60789 9.97207 4.5529 10.0577C4.34949 10.3746 3.7257 12.4476 2.8126 16.8436C1.92133 21.1344 1.6711 24.8913 2.00935 25.7015C2.01058 25.7045 2.01178 25.7074 2.01295 25.7103C2.06578 25.8401 2.08131 25.8783 3.7737 23.0517ZM7.25253 11.6384C7.25253 11.6384 7.25342 11.6374 7.25555 11.6351L7.25253 11.6384Z" fill="#F7F7F7"/>
</svg>
